<?xml version="1.0" standalone="no"?>
<!DOCTYPE svg PUBLIC "-//W3C//DTD SVG 20010904//EN"
 "http://www.w3.org/TR/2001/REC-SVG-20010904/DTD/svg10.dtd">
<svg version="1.0" xmlns="http://www.w3.org/2000/svg"
 width="500.000000pt" height="600.000000pt" viewBox="0 0 500.000000 600.000000"
 preserveAspectRatio="xMidYMid meet">
<metadata>
Created by potrace 1.13, written by Peter Selinger 2001-2015
</metadata>
<g transform="translate(0.000000,600.000000) scale(0.100000,-0.100000)"
fill="#000000" stroke="none">
<path d="M2201 5824 c-159 -42 -316 -195 -423 -409 -75 -149 -155 -375 -197
-555 -44 -189 -56 -305 -55 -550 0 -322 24 -479 144 -926 76 -284 93 -417 94
-719 0 -142 -5 -295 -12 -355 -18 -147 -62 -862 -62 -995 0 -134 15 -317 36
-445 61 -362 216 -603 440 -680 94 -33 230 -37 333 -10 323 83 523 306 597
663 10 49 18 181 24 412 5 187 16 423 25 525 40 472 124 1072 230 1660 24 135
50 286 57 335 19 137 16 514 -6 660 -86 586 -401 1129 -769 1325 -109 59 -190
80 -301 79 -56 0 -125 -7 -155 -15z m317 -18 c312 -106 584 -418 766 -876 104
-264 150 -519 150 -840 0 -237 -5 -283 -69 -640 -106 -588 -190 -1188 -230
-1660 -9 -102 -20 -338 -25 -525 -6 -231 -14 -363 -24 -412 -74 -357 -275
-580 -597 -663 -143 -37 -304 -14 -420 61 -162 104 -283 333 -333 629 -20 124
-36 310 -36 435 0 125 45 844 62 985 7 61 12 214 12 365 -1 313 -18 442 -94
729 -119 443 -144 605 -144 916 -1 347 45 587 171 910 89 225 168 355 282 462
114 108 210 146 367 147 71 1 106 -4 162 -23z"/>
</g>
</svg>
