<?xml version="1.0" standalone="no"?>
<!DOCTYPE svg PUBLIC "-//W3C//DTD SVG 20010904//EN"
 "http://www.w3.org/TR/2001/REC-SVG-20010904/DTD/svg10.dtd">
<svg version="1.0" xmlns="http://www.w3.org/2000/svg"
 width="360.000000pt" height="450.000000pt" viewBox="0 0 360.000000 450.000000"
 preserveAspectRatio="xMidYMid meet">
<metadata>
Created by potrace 1.13, written by Peter Selinger 2001-2015
</metadata>
<g transform="translate(0.000000,450.000000) scale(0.100000,-0.100000)"
fill="#000000" stroke="none">
<path d="M1831 4380 c-46 -11 -81 -39 -105 -86 -19 -36 -21 -54 -19 -239 1
-247 36 -805 63 -1020 25 -199 26 -302 4 -333 -12 -18 -19 -20 -30 -12 -30 26
-72 165 -143 480 -27 118 -59 242 -71 275 -12 33 -48 161 -80 285 -69 266 -91
330 -131 370 -54 54 -138 30 -179 -50 -66 -129 -43 -358 89 -905 105 -429 145
-698 146 -955 0 -180 -1 -187 -27 -242 -32 -68 -73 -95 -131 -84 -46 9 -85 48
-133 133 -94 170 -189 278 -316 360 -221 143 -461 118 -445 -45 7 -65 66 -142
197 -256 216 -189 222 -197 377 -484 107 -200 184 -303 358 -478 61 -60 157
-146 214 -190 58 -43 113 -91 123 -105 32 -43 39 -95 46 -329 l7 -225 6 145
c8 175 -4 367 -24 407 -18 33 -66 79 -157 151 -36 28 -108 95 -161 149 -188
193 -267 300 -361 488 -135 270 -176 326 -347 474 -207 179 -257 256 -200 310
67 62 244 16 397 -104 38 -30 73 -51 77 -47 5 4 6 2 2 -3 -3 -6 16 -36 42 -68
26 -31 69 -97 96 -145 88 -159 127 -192 228 -192 166 0 227 196 182 585 -27
234 -75 496 -135 745 -68 281 -104 456 -121 585 -22 174 7 326 66 341 56 14
88 -56 159 -349 25 -100 59 -222 75 -271 17 -49 49 -170 71 -270 101 -449 139
-546 215 -546 35 0 67 28 84 73 17 43 13 129 -14 350 -27 224 -65 837 -65
1047 0 109 3 142 18 170 32 65 104 80 146 30 35 -42 45 -83 56 -235 6 -71 24
-253 40 -403 19 -170 30 -326 30 -415 0 -295 26 -510 68 -566 33 -44 92 -41
110 6 21 57 24 94 27 353 2 146 11 348 19 449 9 101 20 271 25 377 9 211 18
245 75 273 25 12 31 11 55 -6 38 -28 59 -78 69 -168 6 -46 8 -344 5 -698 -5
-647 -2 -696 37 -732 39 -36 94 -15 127 48 16 33 48 175 58 262 4 33 24 137
45 230 22 94 46 225 55 291 19 147 28 180 57 211 47 51 83 16 100 -97 13 -90
0 -250 -47 -575 -54 -363 -63 -452 -70 -675 -16 -526 -72 -954 -162 -1224 -67
-201 -85 -210 -423 -212 -135 -2 -272 -6 -305 -11 -39 -5 54 -8 265 -8 179 0
334 5 345 9 11 5 32 18 48 28 l27 20 -7 -89 c-5 -48 -8 -205 -8 -348 0 -201 3
-269 14 -300 l15 -40 12 40 c8 27 13 124 13 300 1 247 4 292 41 565 5 36 20
100 34 144 74 232 126 622 146 1106 10 231 18 310 63 615 47 323 51 365 52
540 0 178 -1 193 -22 232 -47 88 -152 77 -200 -20 -16 -31 -30 -91 -43 -187
-11 -78 -31 -192 -45 -253 -30 -130 -48 -225 -69 -357 -20 -120 -32 -163 -55
-192 l-19 -23 -11 29 c-8 20 -11 232 -11 700 1 582 -1 681 -15 741 -27 116
-71 165 -150 165 -109 0 -155 -99 -155 -334 0 -61 -8 -192 -16 -291 -9 -99
-19 -324 -24 -500 -8 -307 -13 -365 -30 -365 -10 0 -26 47 -41 120 -6 30 -14
183 -19 340 -6 197 -17 371 -38 565 -17 154 -35 330 -41 392 -14 156 -44 218
-118 249 -36 15 -34 15 -82 4z"/>
<path d="M1500 2201 c8 -5 71 -21 140 -36 251 -54 459 -116 769 -230 84 -31
158 -54 165 -52 18 6 -119 71 -258 121 -230 84 -355 121 -570 172 -107 25
-272 42 -246 25z"/>
<path d="M1545 2076 c196 -111 235 -137 317 -215 200 -189 281 -392 295 -736
6 -158 7 -160 20 -110 20 72 11 305 -16 407 -70 268 -218 465 -456 607 -62 37
-177 82 -209 81 -6 0 16 -16 49 -34z"/>
</g>
</svg>
