<?xml version="1.0" standalone="no"?>
<!DOCTYPE svg PUBLIC "-//W3C//DTD SVG 20010904//EN"
 "http://www.w3.org/TR/2001/REC-SVG-20010904/DTD/svg10.dtd">
<svg version="1.0" xmlns="http://www.w3.org/2000/svg"
 width="360.000000pt" height="450.000000pt" viewBox="0 0 360.000000 450.000000"
 preserveAspectRatio="xMidYMid meet">
<metadata>
Created by potrace 1.13, written by Peter Selinger 2001-2015
</metadata>
<g transform="translate(0.000000,450.000000) scale(0.100000,-0.100000)"
fill="#000000" stroke="none">
<path d="M1685 4376 c-73 -32 -102 -95 -116 -249 -6 -62 -24 -238 -41 -392
-21 -194 -32 -368 -38 -565 -5 -157 -13 -310 -19 -340 -15 -73 -31 -120 -41
-120 -17 0 -22 58 -30 365 -5 176 -15 401 -24 500 -8 99 -16 230 -16 291 0
235 -46 334 -155 334 -79 0 -123 -49 -150 -165 -14 -60 -16 -159 -15 -741 0
-468 -3 -680 -11 -700 l-11 -29 -19 23 c-23 29 -35 72 -55 192 -21 132 -39
227 -69 357 -14 61 -34 175 -45 253 -23 168 -46 223 -104 253 -32 17 -43 18
-77 8 -30 -9 -44 -21 -62 -54 -21 -39 -22 -54 -22 -232 1 -175 5 -217 52 -540
45 -305 53 -384 63 -615 20 -484 72 -874 146 -1106 14 -44 29 -108 34 -144 37
-273 40 -318 41 -565 0 -176 5 -273 13 -300 l12 -40 15 40 c11 31 14 99 14
300 0 143 -3 300 -8 348 l-7 89 27 -20 c16 -10 37 -23 48 -28 11 -4 166 -9
345 -9 211 0 304 3 265 8 -33 5 -170 9 -305 11 -338 2 -356 11 -423 212 -90
270 -146 698 -162 1224 -7 223 -16 312 -70 675 -47 325 -60 485 -47 575 17
113 53 148 100 97 29 -31 38 -64 57 -211 9 -66 33 -197 55 -291 21 -93 41
-197 45 -230 10 -87 42 -229 58 -262 33 -63 88 -84 127 -48 39 36 42 85 37
732 -3 354 -1 652 5 698 10 90 31 140 69 168 24 17 30 18 55 6 57 -28 66 -62
75 -273 5 -106 16 -276 25 -377 8 -101 17 -303 19 -449 3 -259 6 -296 27 -353
18 -47 77 -50 110 -6 42 56 68 271 68 566 0 89 11 245 30 415 16 150 34 332
40 403 11 152 21 193 56 235 42 50 114 35 146 -30 15 -28 18 -61 18 -170 0
-210 -38 -823 -65 -1047 -36 -290 -33 -347 17 -400 28 -30 78 -30 106 0 44 47
83 174 162 523 22 100 54 221 71 270 16 49 50 171 75 271 71 293 103 363 159
349 59 -15 88 -167 66 -341 -17 -129 -53 -304 -121 -585 -60 -249 -108 -511
-135 -745 -45 -389 16 -585 182 -585 101 0 140 33 228 192 27 48 70 114 96
145 26 32 45 62 42 68 -4 5 -3 7 2 3 4 -4 39 17 77 47 153 120 330 166 397
104 57 -54 7 -131 -200 -310 -171 -148 -212 -204 -347 -474 -94 -188 -173
-295 -361 -488 -53 -54 -125 -121 -161 -149 -91 -72 -139 -118 -157 -151 -20
-40 -32 -232 -24 -407 l6 -145 7 225 c7 234 14 286 46 329 10 14 65 62 123
105 57 44 154 130 214 190 174 175 251 278 358 478 155 287 161 295 377 484
131 114 190 191 197 256 16 163 -224 188 -445 45 -127 -82 -222 -190 -316
-360 -48 -85 -87 -124 -133 -133 -58 -11 -99 16 -131 84 -26 55 -27 62 -27
242 1 257 41 526 146 955 132 547 155 776 89 905 -41 80 -125 104 -179 50 -40
-40 -62 -104 -131 -370 -32 -124 -68 -252 -80 -285 -12 -33 -44 -157 -71 -275
-71 -315 -113 -454 -143 -480 -11 -8 -18 -6 -30 12 -22 31 -21 134 4 333 21
168 55 672 66 981 8 194 0 253 -37 306 -37 52 -121 78 -174 54z"/>
<path d="M1970 2199 c-90 -13 -344 -78 -481 -123 -246 -80 -491 -183 -463
-193 7 -2 81 21 165 52 310 114 518 176 769 230 69 15 132 31 140 36 19 11
-52 10 -130 -2z"/>
<path d="M2019 2087 c-78 -27 -168 -79 -260 -153 -154 -122 -265 -300 -320
-512 -27 -102 -36 -335 -16 -407 13 -50 14 -48 20 110 14 344 95 547 295 736
82 78 121 104 317 215 70 39 57 43 -36 11z"/>
</g>
</svg>
